# xmcd CD database file
#
# Track frame offsets:
#	150
#	19869
#	38452
#	59194
#	78891
#	101408
#	122667
#	143699
#	165220
#	184398
#	206435
#
# Disc length: 2928 seconds
#
# Revision: 0
# Processed by: cddbd v1.5.1PL0 Copyright (c) Steve Scherf et al.
# Submitted via: CDex 1.50beta8
#
DISCID=880b6e0b
DTITLE=ポルノグラフィティ - シングルベスト11曲
DYEAR=1900
DGENRE=JPop
TTITLE0=アポロ
TTITLE1=ヒトリノ夜
TTITLE2=ミュージック・アワー
TTITLE3=サウダージ
TTITLE4=サボテン
TTITLE5=アゲハ蝶
TTITLE6=ヴォイス
TTITLE7=幸せについて本気出して考えてみた
TTITLE8=Mugen
TTITLE9=渦
TTITLE10=アポロ(広島弁)
EXTD=
EXTT0=
EXTT1=
EXTT2=
EXTT3=
EXTT4=
EXTT5=
EXTT6=
EXTT7=
EXTT8=
EXTT9=
EXTT10=
PLAYORDER=
